{
  "accessors": [
    {
      "bufferView": 2,
      "componentType": 5126,
      "count": 2360,
      "max": [
        1.4775333404541016,
        0.5118497610092163,
        -0.001637119916267693
      ],
      "min": [
        -1.4775333404541016,
        -0.4561048150062561,
        -1.9051965475082397
      ],
      "type": "VEC3"
    },
    {
      "bufferView": 2,
      "byteOffset": 28320,
      "componentType": 5126,
      "count": 2360,
      "max": [
        0.9998703598976135,
        0.999833881855011,
        0.9999999403953552
      ],
      "min": [
        -0.9998705983161926,
        -0.9999966621398926,
        -0.9986079931259155
      ],
      "type": "VEC3"
    },
    {
      "bufferView": 1,
      "componentType": 5126,
      "count": 2360,
      "max": [
        0.9970719814300537,
        0.9969419836997986
      ],
      "min": [
        0.0005547003820538521,
        0.0020000000949949026
      ],
      "type": "VEC2"
    },
    {
      "bufferView": 0,
      "componentType": 5125,
      "count": 11856,
      "type": "SCALAR"
    }
  ],
  "asset": {
    "extras": {
      "author": "jaspermateodev (https://sketchfab.com/jaspermateodev)",
      "license": "CC-BY-4.0 (http://creativecommons.org/licenses/by/4.0/)",
      "source": "https://sketchfab.com/3d-models/fall-guys-670080ace5ec405a88cd3ac02085f193",
      "title": "Fall Guys"
    },
    "generator": "Sketchfab-14.54.0",
    "version": "2.0"
  },
  "bufferViews": [
    {
      "buffer": 0,
      "byteLength": 47424,
      "name": "floatBufferViews",
      "target": 34963
    },
    {
      "buffer": 0,
      "byteLength": 18880,
      "byteOffset": 47424,
      "byteStride": 8,
      "name": "floatBufferViews",
      "target": 34962
    },
    {
      "buffer": 0,
      "byteLength": 56640,
      "byteOffset": 66304,
      "byteStride": 12,
      "name": "floatBufferViews",
      "target": 34962
    }
  ],
  "buffers": [
    {
      "byteLength": 122944,
      "uri": "scene.bin"
    }
  ],
  "materials": [
    {
      "doubleSided": true,
      "name": "CH_FallGuy_MAT",
      "pbrMetallicRoughness": {
        "baseColorFactor": [
          0.821335836452073,
          0.06418881155785693,
          0.32063802179059,
          1.0
        ]
      }
    }
  ],
  "meshes": [
    {
      "name": "Object_0",
      "primitives": [
        {
          "attributes": {
            "NORMAL": 1,
            "POSITION": 0,
            "TEXCOORD_0": 2
          },
          "indices": 3,
          "material": 0,
          "mode": 4
        }
      ]
    }
  ],
  "nodes": [
    {
      "children": [
        1
      ],
      "matrix": [
        1.0,
        0.0,
        0.0,
        0.0,
        0.0,
        2.220446049250313e-16,
        -1.0,
        0.0,
        0.0,
        1.0,
        2.220446049250313e-16,
        0.0,
        0.0,
        0.0,
        0.0,
        1.0
      ],
      "name": "Sketchfab_model"
    },
    {
      "children": [
        2
      ],
      "name": "root"
    },
    {
      "children": [
        3
      ],
      "matrix": [
        1.0,
        0.0,
        0.0,
        0.0,
        0.0,
        2.220446049250313e-16,
        1.0,
        0.0,
        0.0,
        -1.0,
        2.220446049250313e-16,
        0.0,
        0.0,
        0.0,
        0.0,
        1.0
      ],
      "name": "GLTF_SceneRootNode"
    },
    {
      "children": [
        4
      ],
      "matrix": [
        1.0,
        0.0,
        0.0,
        0.0,
        0.0,
        0.07641330159139437,
        0.997076229452845,
        0.0,
        0.0,
        -0.997076229452845,
        0.07641330159139437,
        0.0,
        0.0,
        0.0,
        0.0,
        1.0
      ],
      "name": "Body_0"
    },
    {
      "mesh": 0,
      "name": "Object_4"
    }
  ],
  "scene": 0,
  "scenes": [
    {
      "name": "Sketchfab_Scene",
      "nodes": [
        0
      ]
    }
  ]
}
