{
  "accessors": [
    {
      "bufferView": 2,
      "componentType": 5126,
      "count": 14532,
      "max": [
        6.087364673614502,
        13.732454299926758,
        3.4698243141174316
      ],
      "min": [
        -0.06802670657634735,
        2.044740915298462,
        -3.2029566764831543
      ],
      "type": "VEC3"
    },
    {
      "bufferView": 2,
      "byteOffset": 174384,
      "componentType": 5126,
      "count": 14532,
      "max": [
        0.999995768070221,
        0.9986610412597656,
        0.9999709725379944
      ],
      "min": [
        -0.9991603493690491,
        -0.9996048808097839,
        -0.9998310208320618
      ],
      "type": "VEC3"
    },
    {
      "bufferView": 1,
      "componentType": 5126,
      "count": 14532,
      "max": [
        1.0,
        0.9895841479301453
      ],
      "min": [
        0.0,
        2.288818359375e-05
      ],
      "type": "VEC2"
    },
    {
      "bufferView": 0,
      "componentType": 5125,
      "count": 74304,
      "type": "SCALAR"
    },
    {
      "bufferView": 2,
      "byteOffset": 348768,
      "componentType": 5126,
      "count": 14520,
      "max": [
        -0.06783146411180496,
        13.732454299926758,
        3.4698243141174316
      ],
      "min": [
        -6.2232232093811035,
        2.044740915298462,
        -3.2029566764831543
      ],
      "type": "VEC3"
    },
    {
      "bufferView": 2,
      "byteOffset": 523008,
      "componentType": 5126,
      "count": 14520,
      "max": [
        0.9991602301597595,
        0.9986610412597656,
        0.9999709725379944
      ],
      "min": [
        -0.999995768070221,
        -0.9996048808097839,
        -0.9998310208320618
      ],
      "type": "VEC3"
    },
    {
      "bufferView": 1,
      "byteOffset": 116256,
      "componentType": 5126,
      "count": 14520,
      "max": [
        0.9998148083686829,
        0.9829698204994202
      ],
      "min": [
        0.0,
        0.0
      ],
      "type": "VEC2"
    },
    {
      "bufferView": 0,
      "byteOffset": 297216,
      "componentType": 5125,
      "count": 74304,
      "type": "SCALAR"
    },
    {
      "bufferView": 2,
      "byteOffset": 697248,
      "componentType": 5126,
      "count": 17114,
      "max": [
        0.9861124753952026,
        10.755698204040527,
        3.018294334411621
      ],
      "min": [
        -1.1334582567214966,
        9.613080024719238,
        2.475236177444458
      ],
      "type": "VEC3"
    },
    {
      "bufferView": 2,
      "byteOffset": 902616,
      "componentType": 5126,
      "count": 17114,
      "max": [
        0.9998676180839539,
        0.9999630451202393,
        0.9999800324440002
      ],
      "min": [
        -0.999867856502533,
        -0.9999632239341736,
        -0.9999800324440002
      ],
      "type": "VEC3"
    },
    {
      "bufferView": 1,
      "byteOffset": 232416,
      "componentType": 5126,
      "count": 17114,
      "max": [
        1.0,
        0.946884274482727
      ],
      "min": [
        0.0,
        0.0
      ],
      "type": "VEC2"
    },
    {
      "bufferView": 0,
      "byteOffset": 594432,
      "componentType": 5125,
      "count": 96768,
      "type": "SCALAR"
    },
    {
      "bufferView": 2,
      "byteOffset": 1107984,
      "componentType": 5126,
      "count": 8581,
      "max": [
        2.6688315868377686,
        2.4847750663757324,
        1.7467941045761108
      ],
      "min": [
        0.5138632655143738,
        0.3495101034641266,
        -1.1006683111190796
      ],
      "type": "VEC3"
    },
    {
      "bufferView": 2,
      "byteOffset": 1210956,
      "componentType": 5126,
      "count": 8581,
      "max": [
        0.9929370880126953,
        0.9999271631240845,
        0.9968065619468689
      ],
      "min": [
        -0.9995855689048767,
        -0.9999364018440247,
        -0.999906599521637
      ],
      "type": "VEC3"
    },
    {
      "bufferView": 1,
      "byteOffset": 369328,
      "componentType": 5126,
      "count": 8581,
      "max": [
        1.0,
        0.9783456325531006
      ],
      "min": [
        0.0,
        9.894371032714844e-06
      ],
      "type": "VEC2"
    },
    {
      "bufferView": 0,
      "byteOffset": 981504,
      "componentType": 5125,
      "count": 48384,
      "type": "SCALAR"
    },
    {
      "bufferView": 2,
      "byteOffset": 1313928,
      "componentType": 5126,
      "count": 8577,
      "max": [
        -0.5921608209609985,
        2.4837262630462646,
        1.7467941045761108
      ],
      "min": [
        -2.751945734024048,
        0.35362714529037476,
        -1.0983123779296875
      ],
      "type": "VEC3"
    },
    {
      "bufferView": 2,
      "byteOffset": 1416852,
      "componentType": 5126,
      "count": 8577,
      "max": [
        0.9997754096984863,
        0.9999274611473083,
        0.9969555139541626
      ],
      "min": [
        -0.9982550740242004,
        -0.9999708533287048,
        -0.9998350143432617
      ],
      "type": "VEC3"
    },
    {
      "bufferView": 1,
      "byteOffset": 437976,
      "componentType": 5126,
      "count": 8577,
      "max": [
        0.9985136389732361,
        0.8946675062179565
      ],
      "min": [
        0.0,
        0.0
      ],
      "type": "VEC2"
    },
    {
      "bufferView": 0,
      "byteOffset": 1175040,
      "componentType": 5125,
      "count": 48384,
      "type": "SCALAR"
    }
  ],
  "asset": {
    "extras": {
      "author": "giorgiowar93 (https://sketchfab.com/giorgiowar93)",
      "license": "CC-BY-4.0 (http://creativecommons.org/licenses/by/4.0/)",
      "source": "https://sketchfab.com/3d-models/fall-guys-middle-skin-8261ec8f030141a2a84d2f2abaf38f4e",
      "title": "Fall Guys middle skin"
    },
    "generator": "Sketchfab-13.68.0",
    "version": "2.0"
  },
  "bufferViews": [
    {
      "buffer": 0,
      "byteLength": 1368576,
      "name": "floatBufferViews",
      "target": 34963
    },
    {
      "buffer": 0,
      "byteLength": 506592,
      "byteOffset": 1368576,
      "byteStride": 8,
      "name": "floatBufferViews",
      "target": 34962
    },
    {
      "buffer": 0,
      "byteLength": 1519776,
      "byteOffset": 1875168,
      "byteStride": 12,
      "name": "floatBufferViews",
      "target": 34962
    }
  ],
  "buffers": [
    {
      "byteLength": 3394944,
      "uri": "scene.bin"
    }
  ],
  "materials": [
    {
      "doubleSided": true,
      "name": "material",
      "pbrMetallicRoughness": {
        "baseColorFactor": [
          0.84,
          0.79926,
          0.0252,
          1.0
        ],
        "metallicFactor": 0.0,
        "roughnessFactor": 0.9524317153998911
      }
    },
    {
      "doubleSided": true,
      "name": "Mat.1",
      "pbrMetallicRoughness": {
        "baseColorFactor": [
          0.0,
          0.0,
          0.0,
          1.0
        ],
        "metallicFactor": 0.0,
        "roughnessFactor": 0.9524317153998911
      }
    },
    {
      "doubleSided": true,
      "name": "Mat.2",
      "pbrMetallicRoughness": {
        "metallicFactor": 0.0,
        "roughnessFactor": 0.9524317153998911
      }
    }
  ],
  "meshes": [
    {
      "name": "fall_guy_Mat_0",
      "primitives": [
        {
          "attributes": {
            "NORMAL": 1,
            "POSITION": 0,
            "TEXCOORD_0": 2
          },
          "indices": 3,
          "material": 0,
          "mode": 4
        }
      ]
    },
    {
      "name": "fall_guy_1_Mat.1_0",
      "primitives": [
        {
          "attributes": {
            "NORMAL": 5,
            "POSITION": 4,
            "TEXCOORD_0": 6
          },
          "indices": 7,
          "material": 1,
          "mode": 4
        }
      ]
    },
    {
      "name": "eyes_Mat.2_0",
      "primitives": [
        {
          "attributes": {
            "NORMAL": 9,
            "POSITION": 8,
            "TEXCOORD_0": 10
          },
          "indices": 11,
          "material": 2,
          "mode": 4
        }
      ]
    },
    {
      "name": "feet__right_Mat_0",
      "primitives": [
        {
          "attributes": {
            "NORMAL": 13,
            "POSITION": 12,
            "TEXCOORD_0": 14
          },
          "indices": 15,
          "material": 0,
          "mode": 4
        }
      ]
    },
    {
      "name": "feet_left_Mat.1_0",
      "primitives": [
        {
          "attributes": {
            "NORMAL": 17,
            "POSITION": 16,
            "TEXCOORD_0": 18
          },
          "indices": 19,
          "material": 1,
          "mode": 4
        }
      ]
    }
  ],
  "nodes": [
    {
      "children": [
        1
      ],
      "matrix": [
        1.0,
        0.0,
        0.0,
        0.0,
        0.0,
        2.220446049250313e-16,
        -1.0,
        0.0,
        0.0,
        1.0,
        2.220446049250313e-16,
        0.0,
        0.0,
        0.0,
        0.0,
        1.0
      ],
      "name": "Sketchfab_model"
    },
    {
      "children": [
        2
      ],
      "matrix": [
        0.009999999776482582,
        0.0,
        0.0,
        0.0,
        0.0,
        0.0,
        0.009999999776482582,
        0.0,
        0.0,
        -0.009999999776482582,
        0.0,
        0.0,
        0.0,
        0.0,
        0.0,
        1.0
      ],
      "name": "1ccff49910744d809b83cfaa4d41091d.fbx"
    },
    {
      "children": [
        3,
        5,
        7,
        9,
        11
      ],
      "name": "RootNode"
    },
    {
      "children": [
        4
      ],
      "name": "fall_guy"
    },
    {
      "mesh": 0,
      "name": "fall_guy_Mat_0"
    },
    {
      "children": [
        6
      ],
      "name": "fall_guy_1"
    },
    {
      "mesh": 1,
      "name": "fall_guy_1_Mat.1_0"
    },
    {
      "children": [
        8
      ],
      "name": "eyes"
    },
    {
      "mesh": 2,
      "name": "eyes_Mat.2_0"
    },
    {
      "children": [
        10
      ],
      "name": "feet__right"
    },
    {
      "mesh": 3,
      "name": "feet__right_Mat_0"
    },
    {
      "children": [
        12
      ],
      "name": "feet_left"
    },
    {
      "mesh": 4,
      "name": "feet_left_Mat.1_0"
    }
  ],
  "scene": 0,
  "scenes": [
    {
      "name": "Sketchfab_Scene",
      "nodes": [
        0
      ]
    }
  ]
}
